# xmcd CD database file
#
# Track frame offsets:
#	150
#	25425
#	44700
#	60900
#	76350
#	90900
#	135825
#	166575
#	187275
#	215100
#	231375
#	251925
#	269250
#
# Disc length: 4118 seconds
#
# Revision: 1
# Processed by: cddbd v1.5.2PL0 Copyright (c) Steve Scherf et al.
# Submitted via: CDex 1.51
#
DISCID=b510140d
DTITLE=Groovin Stuff - Hangover Weekend
DYEAR=2018
DGENRE=Blues
TTITLE0=Free Birds
TTITLE1=Cheap Sunglasses
TTITLE2=The Cross
TTITLE3=Hangover Weekend
TTITLE4=Over the Limit
TTITLE5=The Ghost from the Past
TTITLE6=LA WOMAN
TTITLE7=Louisiana Blues
TTITLE8=Highway 41
TTITLE9=Break Free
TTITLE10=Roadhouse Blues
TTITLE11=Steady Rollin`Boy
TTITLE12=Walking on the Deadline
EXTD=YEAR: 2018
EXTT0=
EXTT1=
EXTT2=
EXTT3=
EXTT4=
EXTT5=
EXTT6=
EXTT7=
EXTT8=
EXTT9=
EXTT10=
EXTT11=
EXTT12=
PLAYORDER=
